<svg width="1884" height="1325" viewBox="0 0 1884 1325" fill="none" xmlns="http://www.w3.org/2000/svg">
<path d="M1065.31 277.481C1287.87 348.863 1474.25 457.784 1595.8 575.376C1718.24 693.83 1770.86 816.643 1738.46 917.65C1706.06 1018.66 1591.83 1087.96 1423.34 1113.1C1256.07 1138.06 1041.1 1118.26 818.542 1046.88C595.98 975.494 409.602 866.573 288.052 748.981C165.61 630.526 112.997 507.713 145.392 406.706C177.788 305.699 292.018 236.398 460.516 211.256C627.787 186.298 842.748 206.098 1065.31 277.481Z" stroke="#124455" stroke-width="35"/>
<g clip-path="url(#clip0_2175_31220)">
<path d="M1285.54 1016.96C1200.53 999.305 1153.67 908.221 1188.75 828.801C1214.32 770.934 1277.92 738.215 1339.86 751.076C1424.87 768.732 1471.73 859.825 1436.65 939.246C1411.08 997.113 1347.48 1029.83 1285.54 1016.97L1285.54 1016.96ZM1340.54 825.027C1301.64 806.868 1256.39 830.14 1248.53 872.348C1243.17 901.127 1258.34 930.606 1284.86 942.989C1323.78 961.163 1369.05 937.875 1376.89 895.652C1382.23 866.879 1367.07 837.4 1340.54 825.017L1340.54 825.027Z" fill="#114454"/>
<path d="M905.263 586.576C927.209 593.615 950.705 581.531 957.744 559.585C964.782 537.639 952.698 514.143 930.752 507.104C908.806 500.065 885.31 512.15 878.271 534.096C871.233 556.041 883.317 579.538 905.263 586.576Z" fill="#114454"/>
<path d="M930.727 622.542L863.633 601.023L782.697 853.372L849.791 874.891L930.727 622.542Z" fill="#114454"/>
<path d="M1151.27 693.278L1035.19 842.883L1027.77 653.667L956.352 630.762L967.404 912.603L1049.77 939.02L1222.69 716.184L1151.27 693.278Z" fill="#114454"/>
<path d="M743.446 840.783L485.603 758.085L497.772 723.845C506.26 699.967 521.892 658.531 543.806 610.93C539.718 609.335 535.666 607.626 531.655 605.793C479.357 581.921 437.647 539.737 414.22 486.981L478.621 458.383C498.02 502.055 533.297 533.091 575.234 547.487C607.564 486.959 639.442 441.723 670.078 412.934C720.49 365.546 775.434 346.36 820.807 360.261C851.57 369.844 873.587 393.499 880.788 425.433C896.826 496.644 821.466 578.174 705.494 615.079C675.496 624.623 644.582 628.381 614.317 626.445C600.678 655.12 587.992 684.72 576.854 713.356L764.965 773.689L743.446 840.783ZM800.44 427.724C800.345 427.694 800.249 427.663 800.154 427.632C785.258 423.065 754.893 429.919 718.334 464.275C696.428 484.868 673.533 517.19 651.575 555.137C662.384 553.784 673.284 551.399 684.126 547.945C777.266 518.315 816.908 462.526 812.051 440.931C810.482 433.969 806.791 429.761 800.44 427.724Z" fill="#114454"/>
</g>
<defs>
<clipPath id="clip0_2175_31220">
<rect width="1112.48" height="484.17" fill="white" transform="translate(488.996 253.84) rotate(17.7826)"/>
</clipPath>
</defs>
</svg>

